<svg xmlns="http://www.w3.org/2000/svg" width="36" height="29.239"  xmlns:v="https://vecta.io/nano"><path d="M32.3 7.287l.023.959c0 9.754-7.424 20.992-20.992 20.992A20.85 20.85 0 0 1 0 25.926c.592.065 1.187.095 1.782.091 3.321.009 6.548-1.102 9.16-3.152a7.39 7.39 0 0 1-6.9-5.117 9.3 9.3 0 0 0 1.393.114 7.8 7.8 0 0 0 1.942-.251 7.38 7.38 0 0 1-5.916-7.241v-.091a7.43 7.43 0 0 0 3.339.94 7.39 7.39 0 0 1-2.287-9.872 20.97 20.97 0 0 0 15.213 7.721 8.33 8.33 0 0 1-.183-1.69c.003-3.028 1.854-5.748 4.67-6.861s6.026-.395 8.099 1.813c1.652-.318 3.237-.921 4.683-1.782a7.36 7.36 0 0 1-3.244 4.066A14.79 14.79 0 0 0 36 3.472a15.86 15.86 0 0 1-3.7 3.815z" fill="#fff"/></svg>